<mxfile host="Electron" modified="2023-11-10T12:21:59.189Z" agent="Mozilla/5.0 (Windows NT 10.0; Win64; x64) AppleWebKit/537.36 (KHTML, like Gecko) draw.io/22.0.2 Chrome/114.0.5735.289 Electron/25.8.4 Safari/537.36" etag="7Guwmksudnmu4MLxw-pk" version="22.0.2" type="device">
  <diagram name="Página-1" id="4yHL77mqh13cgWV23KcG">
    <mxGraphModel dx="1779" dy="827" grid="1" gridSize="10" guides="1" tooltips="1" connect="1" arrows="1" fold="1" page="1" pageScale="1" pageWidth="827" pageHeight="1169" math="0" shadow="0">
      <root>
        <mxCell id="0" />
        <mxCell id="1" parent="0" />
        <mxCell id="sySCFFqM4Ui65GVLa6ty-9" style="edgeStyle=orthogonalEdgeStyle;rounded=0;orthogonalLoop=1;jettySize=auto;html=1;exitX=0.5;exitY=1;exitDx=0;exitDy=0;entryX=0;entryY=0.5;entryDx=0;entryDy=0;" edge="1" parent="1" source="sySCFFqM4Ui65GVLa6ty-2" target="sySCFFqM4Ui65GVLa6ty-8">
          <mxGeometry relative="1" as="geometry" />
        </mxCell>
        <mxCell id="sySCFFqM4Ui65GVLa6ty-38" style="edgeStyle=orthogonalEdgeStyle;rounded=0;orthogonalLoop=1;jettySize=auto;html=1;exitX=0;exitY=0.5;exitDx=0;exitDy=0;entryX=1;entryY=0.5;entryDx=0;entryDy=0;" edge="1" parent="1" source="sySCFFqM4Ui65GVLa6ty-2" target="sySCFFqM4Ui65GVLa6ty-13">
          <mxGeometry relative="1" as="geometry" />
        </mxCell>
        <mxCell id="sySCFFqM4Ui65GVLa6ty-39" style="edgeStyle=orthogonalEdgeStyle;rounded=0;orthogonalLoop=1;jettySize=auto;html=1;exitX=0;exitY=0.5;exitDx=0;exitDy=0;entryX=1;entryY=0.5;entryDx=0;entryDy=0;" edge="1" parent="1" source="sySCFFqM4Ui65GVLa6ty-2" target="sySCFFqM4Ui65GVLa6ty-12">
          <mxGeometry relative="1" as="geometry" />
        </mxCell>
        <mxCell id="sySCFFqM4Ui65GVLa6ty-41" style="edgeStyle=orthogonalEdgeStyle;rounded=0;orthogonalLoop=1;jettySize=auto;html=1;exitX=0;exitY=0.5;exitDx=0;exitDy=0;entryX=1;entryY=0.5;entryDx=0;entryDy=0;" edge="1" parent="1" source="sySCFFqM4Ui65GVLa6ty-2" target="sySCFFqM4Ui65GVLa6ty-35">
          <mxGeometry relative="1" as="geometry" />
        </mxCell>
        <mxCell id="sySCFFqM4Ui65GVLa6ty-42" style="edgeStyle=orthogonalEdgeStyle;rounded=0;orthogonalLoop=1;jettySize=auto;html=1;exitX=0;exitY=0.5;exitDx=0;exitDy=0;entryX=1;entryY=0.5;entryDx=0;entryDy=0;" edge="1" parent="1" source="sySCFFqM4Ui65GVLa6ty-2" target="sySCFFqM4Ui65GVLa6ty-36">
          <mxGeometry relative="1" as="geometry" />
        </mxCell>
        <mxCell id="sySCFFqM4Ui65GVLa6ty-84" style="edgeStyle=orthogonalEdgeStyle;rounded=0;orthogonalLoop=1;jettySize=auto;html=1;exitX=1;exitY=1;exitDx=0;exitDy=0;" edge="1" parent="1" source="sySCFFqM4Ui65GVLa6ty-2" target="sySCFFqM4Ui65GVLa6ty-75">
          <mxGeometry relative="1" as="geometry">
            <Array as="points">
              <mxPoint x="310" y="440" />
              <mxPoint x="670" y="440" />
            </Array>
          </mxGeometry>
        </mxCell>
        <mxCell id="sySCFFqM4Ui65GVLa6ty-86" style="edgeStyle=orthogonalEdgeStyle;rounded=0;orthogonalLoop=1;jettySize=auto;html=1;exitX=0.25;exitY=1;exitDx=0;exitDy=0;entryX=0.5;entryY=0;entryDx=0;entryDy=0;" edge="1" parent="1" source="sySCFFqM4Ui65GVLa6ty-2" target="sySCFFqM4Ui65GVLa6ty-74">
          <mxGeometry relative="1" as="geometry" />
        </mxCell>
        <mxCell id="sySCFFqM4Ui65GVLa6ty-96" style="edgeStyle=orthogonalEdgeStyle;rounded=0;orthogonalLoop=1;jettySize=auto;html=1;exitX=0;exitY=0.5;exitDx=0;exitDy=0;entryX=1;entryY=0.5;entryDx=0;entryDy=0;" edge="1" parent="1" source="sySCFFqM4Ui65GVLa6ty-2" target="sySCFFqM4Ui65GVLa6ty-94">
          <mxGeometry relative="1" as="geometry" />
        </mxCell>
        <mxCell id="sySCFFqM4Ui65GVLa6ty-2" value="ANIMAL" style="rounded=0;whiteSpace=wrap;html=1;" vertex="1" parent="1">
          <mxGeometry x="190" y="340" width="120" height="60" as="geometry" />
        </mxCell>
        <mxCell id="sySCFFqM4Ui65GVLa6ty-63" style="edgeStyle=orthogonalEdgeStyle;rounded=0;orthogonalLoop=1;jettySize=auto;html=1;exitX=1;exitY=0.5;exitDx=0;exitDy=0;entryX=0.5;entryY=0;entryDx=0;entryDy=0;" edge="1" parent="1" source="sySCFFqM4Ui65GVLa6ty-8" target="sySCFFqM4Ui65GVLa6ty-58">
          <mxGeometry relative="1" as="geometry" />
        </mxCell>
        <mxCell id="sySCFFqM4Ui65GVLa6ty-64" style="edgeStyle=orthogonalEdgeStyle;rounded=0;orthogonalLoop=1;jettySize=auto;html=1;exitX=1;exitY=0.5;exitDx=0;exitDy=0;" edge="1" parent="1" source="sySCFFqM4Ui65GVLa6ty-8" target="sySCFFqM4Ui65GVLa6ty-57">
          <mxGeometry relative="1" as="geometry" />
        </mxCell>
        <mxCell id="sySCFFqM4Ui65GVLa6ty-8" value="IS A" style="triangle;whiteSpace=wrap;html=1;rotation=90;" vertex="1" parent="1">
          <mxGeometry x="415" y="540" width="60" height="80" as="geometry" />
        </mxCell>
        <mxCell id="sySCFFqM4Ui65GVLa6ty-12" value="Raza" style="ellipse;whiteSpace=wrap;html=1;" vertex="1" parent="1">
          <mxGeometry x="27.5" y="370" width="102.5" height="30" as="geometry" />
        </mxCell>
        <mxCell id="sySCFFqM4Ui65GVLa6ty-13" value="&lt;u&gt;NºCrotal&lt;/u&gt;" style="ellipse;whiteSpace=wrap;html=1;" vertex="1" parent="1">
          <mxGeometry x="30" y="340" width="100" height="30" as="geometry" />
        </mxCell>
        <mxCell id="sySCFFqM4Ui65GVLa6ty-56" style="edgeStyle=orthogonalEdgeStyle;rounded=0;orthogonalLoop=1;jettySize=auto;html=1;exitX=1;exitY=1;exitDx=0;exitDy=0;entryX=0;entryY=0.25;entryDx=0;entryDy=0;" edge="1" parent="1" source="sySCFFqM4Ui65GVLa6ty-14" target="sySCFFqM4Ui65GVLa6ty-16">
          <mxGeometry relative="1" as="geometry" />
        </mxCell>
        <mxCell id="sySCFFqM4Ui65GVLa6ty-14" value="&lt;u&gt;id fincas&lt;/u&gt;" style="ellipse;whiteSpace=wrap;html=1;" vertex="1" parent="1">
          <mxGeometry x="100" y="10" width="100" height="40" as="geometry" />
        </mxCell>
        <mxCell id="sySCFFqM4Ui65GVLa6ty-18" style="edgeStyle=orthogonalEdgeStyle;rounded=0;orthogonalLoop=1;jettySize=auto;html=1;exitX=0.5;exitY=1;exitDx=0;exitDy=0;entryX=0.5;entryY=0;entryDx=0;entryDy=0;" edge="1" parent="1" source="sySCFFqM4Ui65GVLa6ty-15" target="sySCFFqM4Ui65GVLa6ty-2">
          <mxGeometry relative="1" as="geometry" />
        </mxCell>
        <mxCell id="sySCFFqM4Ui65GVLa6ty-51" style="edgeStyle=orthogonalEdgeStyle;rounded=0;orthogonalLoop=1;jettySize=auto;html=1;exitX=1;exitY=0;exitDx=0;exitDy=0;entryX=0;entryY=0.5;entryDx=0;entryDy=0;" edge="1" parent="1" source="sySCFFqM4Ui65GVLa6ty-15" target="sySCFFqM4Ui65GVLa6ty-20">
          <mxGeometry relative="1" as="geometry" />
        </mxCell>
        <mxCell id="sySCFFqM4Ui65GVLa6ty-15" value="engordan" style="rhombus;whiteSpace=wrap;html=1;" vertex="1" parent="1">
          <mxGeometry x="237" y="200" width="86" height="60" as="geometry" />
        </mxCell>
        <mxCell id="sySCFFqM4Ui65GVLa6ty-50" style="edgeStyle=orthogonalEdgeStyle;rounded=0;orthogonalLoop=1;jettySize=auto;html=1;exitX=0.5;exitY=1;exitDx=0;exitDy=0;entryX=0.5;entryY=0;entryDx=0;entryDy=0;" edge="1" parent="1" source="sySCFFqM4Ui65GVLa6ty-16" target="sySCFFqM4Ui65GVLa6ty-15">
          <mxGeometry relative="1" as="geometry" />
        </mxCell>
        <mxCell id="sySCFFqM4Ui65GVLa6ty-16" value="FINCAS" style="shape=ext;margin=3;double=1;whiteSpace=wrap;html=1;align=center;" vertex="1" parent="1">
          <mxGeometry x="210" y="40" width="140" height="60" as="geometry" />
        </mxCell>
        <mxCell id="sySCFFqM4Ui65GVLa6ty-19" value="Fecha Fin" style="ellipse;whiteSpace=wrap;html=1;" vertex="1" parent="1">
          <mxGeometry x="340" y="220" width="90" height="30" as="geometry" />
        </mxCell>
        <mxCell id="sySCFFqM4Ui65GVLa6ty-20" value="Fecha inicio" style="ellipse;whiteSpace=wrap;html=1;" vertex="1" parent="1">
          <mxGeometry x="340" y="190" width="90" height="30" as="geometry" />
        </mxCell>
        <mxCell id="sySCFFqM4Ui65GVLa6ty-30" value="NºHijos" style="ellipse;whiteSpace=wrap;html=1;" vertex="1" parent="1">
          <mxGeometry x="170" y="780" width="100" height="40" as="geometry" />
        </mxCell>
        <mxCell id="sySCFFqM4Ui65GVLa6ty-31" value="Nº Partos" style="ellipse;whiteSpace=wrap;html=1;" vertex="1" parent="1">
          <mxGeometry x="170" y="740" width="100" height="40" as="geometry" />
        </mxCell>
        <mxCell id="sySCFFqM4Ui65GVLa6ty-32" value="Nº Hijos" style="ellipse;whiteSpace=wrap;html=1;" vertex="1" parent="1">
          <mxGeometry x="635" y="760" width="110" height="40" as="geometry" />
        </mxCell>
        <mxCell id="sySCFFqM4Ui65GVLa6ty-33" value="Nº Cubrimientos" style="ellipse;whiteSpace=wrap;html=1;" vertex="1" parent="1">
          <mxGeometry x="640" y="720" width="100" height="40" as="geometry" />
        </mxCell>
        <mxCell id="sySCFFqM4Ui65GVLa6ty-35" value="Fecha Nacimiento" style="ellipse;whiteSpace=wrap;html=1;" vertex="1" parent="1">
          <mxGeometry x="30" y="410" width="100" height="30" as="geometry" />
        </mxCell>
        <mxCell id="sySCFFqM4Ui65GVLa6ty-36" value="Fecha defunción" style="ellipse;whiteSpace=wrap;html=1;" vertex="1" parent="1">
          <mxGeometry x="26.25" y="440" width="105" height="35" as="geometry" />
        </mxCell>
        <mxCell id="sySCFFqM4Ui65GVLa6ty-52" style="edgeStyle=orthogonalEdgeStyle;rounded=0;orthogonalLoop=1;jettySize=auto;html=1;exitX=1;exitY=1;exitDx=0;exitDy=0;entryX=-0.022;entryY=0.733;entryDx=0;entryDy=0;entryPerimeter=0;" edge="1" parent="1" source="sySCFFqM4Ui65GVLa6ty-15" target="sySCFFqM4Ui65GVLa6ty-19">
          <mxGeometry relative="1" as="geometry" />
        </mxCell>
        <mxCell id="sySCFFqM4Ui65GVLa6ty-53" value="(1,n)" style="text;html=1;align=center;verticalAlign=middle;resizable=0;points=[];autosize=1;strokeColor=none;fillColor=none;" vertex="1" parent="1">
          <mxGeometry x="235" y="98" width="50" height="30" as="geometry" />
        </mxCell>
        <mxCell id="sySCFFqM4Ui65GVLa6ty-54" value="(1,n)" style="text;html=1;align=center;verticalAlign=middle;resizable=0;points=[];autosize=1;strokeColor=none;fillColor=none;" vertex="1" parent="1">
          <mxGeometry x="245" y="318" width="50" height="30" as="geometry" />
        </mxCell>
        <mxCell id="sySCFFqM4Ui65GVLa6ty-55" value="N:M" style="text;html=1;align=center;verticalAlign=middle;resizable=0;points=[];autosize=1;strokeColor=none;fillColor=none;" vertex="1" parent="1">
          <mxGeometry x="185" y="208" width="50" height="30" as="geometry" />
        </mxCell>
        <mxCell id="sySCFFqM4Ui65GVLa6ty-59" style="edgeStyle=orthogonalEdgeStyle;rounded=0;orthogonalLoop=1;jettySize=auto;html=1;exitX=0.25;exitY=1;exitDx=0;exitDy=0;entryX=0;entryY=0.5;entryDx=0;entryDy=0;" edge="1" parent="1" source="sySCFFqM4Ui65GVLa6ty-57" target="sySCFFqM4Ui65GVLa6ty-32">
          <mxGeometry relative="1" as="geometry" />
        </mxCell>
        <mxCell id="sySCFFqM4Ui65GVLa6ty-62" style="edgeStyle=orthogonalEdgeStyle;rounded=0;orthogonalLoop=1;jettySize=auto;html=1;exitX=0.5;exitY=1;exitDx=0;exitDy=0;entryX=0;entryY=0.5;entryDx=0;entryDy=0;" edge="1" parent="1" source="sySCFFqM4Ui65GVLa6ty-57" target="sySCFFqM4Ui65GVLa6ty-33">
          <mxGeometry relative="1" as="geometry" />
        </mxCell>
        <mxCell id="sySCFFqM4Ui65GVLa6ty-100" style="edgeStyle=orthogonalEdgeStyle;rounded=0;orthogonalLoop=1;jettySize=auto;html=1;exitX=1;exitY=0.75;exitDx=0;exitDy=0;entryX=0;entryY=1;entryDx=0;entryDy=0;" edge="1" parent="1" source="sySCFFqM4Ui65GVLa6ty-57" target="sySCFFqM4Ui65GVLa6ty-97">
          <mxGeometry relative="1" as="geometry" />
        </mxCell>
        <mxCell id="sySCFFqM4Ui65GVLa6ty-57" value="SEMENTAL" style="rounded=0;whiteSpace=wrap;html=1;" vertex="1" parent="1">
          <mxGeometry x="525" y="658" width="120" height="60" as="geometry" />
        </mxCell>
        <mxCell id="sySCFFqM4Ui65GVLa6ty-60" style="edgeStyle=orthogonalEdgeStyle;rounded=0;orthogonalLoop=1;jettySize=auto;html=1;exitX=0.75;exitY=1;exitDx=0;exitDy=0;entryX=1;entryY=0.5;entryDx=0;entryDy=0;" edge="1" parent="1" source="sySCFFqM4Ui65GVLa6ty-58" target="sySCFFqM4Ui65GVLa6ty-30">
          <mxGeometry relative="1" as="geometry" />
        </mxCell>
        <mxCell id="sySCFFqM4Ui65GVLa6ty-61" style="edgeStyle=orthogonalEdgeStyle;rounded=0;orthogonalLoop=1;jettySize=auto;html=1;exitX=0.5;exitY=1;exitDx=0;exitDy=0;entryX=1;entryY=0.5;entryDx=0;entryDy=0;" edge="1" parent="1" source="sySCFFqM4Ui65GVLa6ty-58" target="sySCFFqM4Ui65GVLa6ty-31">
          <mxGeometry relative="1" as="geometry" />
        </mxCell>
        <mxCell id="sySCFFqM4Ui65GVLa6ty-58" value="MADRE" style="rounded=0;whiteSpace=wrap;html=1;" vertex="1" parent="1">
          <mxGeometry x="265" y="658" width="120" height="60" as="geometry" />
        </mxCell>
        <mxCell id="sySCFFqM4Ui65GVLa6ty-79" style="edgeStyle=orthogonalEdgeStyle;rounded=0;orthogonalLoop=1;jettySize=auto;html=1;exitX=0;exitY=0.5;exitDx=0;exitDy=0;entryX=1;entryY=0.5;entryDx=0;entryDy=0;" edge="1" parent="1" source="sySCFFqM4Ui65GVLa6ty-71" target="sySCFFqM4Ui65GVLa6ty-72">
          <mxGeometry relative="1" as="geometry" />
        </mxCell>
        <mxCell id="sySCFFqM4Ui65GVLa6ty-103" style="edgeStyle=orthogonalEdgeStyle;rounded=0;orthogonalLoop=1;jettySize=auto;html=1;exitX=1;exitY=0.5;exitDx=0;exitDy=0;entryX=0;entryY=0.5;entryDx=0;entryDy=0;" edge="1" parent="1" source="sySCFFqM4Ui65GVLa6ty-71" target="sySCFFqM4Ui65GVLa6ty-76">
          <mxGeometry relative="1" as="geometry" />
        </mxCell>
        <mxCell id="sySCFFqM4Ui65GVLa6ty-71" value="INSPECCION VETERINARIA" style="rounded=0;whiteSpace=wrap;html=1;" vertex="1" parent="1">
          <mxGeometry x="515" y="330" width="120" height="60" as="geometry" />
        </mxCell>
        <mxCell id="sySCFFqM4Ui65GVLa6ty-80" style="edgeStyle=orthogonalEdgeStyle;rounded=0;orthogonalLoop=1;jettySize=auto;html=1;exitX=0;exitY=0.5;exitDx=0;exitDy=0;entryX=1;entryY=0.5;entryDx=0;entryDy=0;" edge="1" parent="1" source="sySCFFqM4Ui65GVLa6ty-72" target="sySCFFqM4Ui65GVLa6ty-2">
          <mxGeometry relative="1" as="geometry" />
        </mxCell>
        <mxCell id="sySCFFqM4Ui65GVLa6ty-72" value="se somete" style="rhombus;whiteSpace=wrap;html=1;" vertex="1" parent="1">
          <mxGeometry x="380" y="330" width="80" height="60" as="geometry" />
        </mxCell>
        <mxCell id="sySCFFqM4Ui65GVLa6ty-74" value="TIENE" style="rhombus;whiteSpace=wrap;html=1;" vertex="1" parent="1">
          <mxGeometry x="180" y="505" width="80" height="80" as="geometry" />
        </mxCell>
        <mxCell id="sySCFFqM4Ui65GVLa6ty-101" style="edgeStyle=orthogonalEdgeStyle;rounded=0;orthogonalLoop=1;jettySize=auto;html=1;exitX=0.5;exitY=1;exitDx=0;exitDy=0;entryX=1;entryY=0;entryDx=0;entryDy=0;" edge="1" parent="1" source="sySCFFqM4Ui65GVLa6ty-75" target="sySCFFqM4Ui65GVLa6ty-57">
          <mxGeometry relative="1" as="geometry" />
        </mxCell>
        <mxCell id="sySCFFqM4Ui65GVLa6ty-75" value="TIENE" style="rhombus;whiteSpace=wrap;html=1;" vertex="1" parent="1">
          <mxGeometry x="630" y="505" width="80" height="80" as="geometry" />
        </mxCell>
        <mxCell id="sySCFFqM4Ui65GVLa6ty-76" value="informe&lt;br&gt;enfermedades" style="ellipse;whiteSpace=wrap;html=1;" vertex="1" parent="1">
          <mxGeometry x="650" y="345" width="110" height="40" as="geometry" />
        </mxCell>
        <mxCell id="sySCFFqM4Ui65GVLa6ty-77" value="Fecha" style="ellipse;whiteSpace=wrap;html=1;" vertex="1" parent="1">
          <mxGeometry x="425" y="380" width="100" height="40" as="geometry" />
        </mxCell>
        <mxCell id="sySCFFqM4Ui65GVLa6ty-78" value="&lt;u&gt;ID. Inspeccion&lt;/u&gt;" style="ellipse;whiteSpace=wrap;html=1;" vertex="1" parent="1">
          <mxGeometry x="650" y="300" width="100" height="40" as="geometry" />
        </mxCell>
        <mxCell id="sySCFFqM4Ui65GVLa6ty-81" value="(0,n)" style="text;html=1;align=center;verticalAlign=middle;resizable=0;points=[];autosize=1;strokeColor=none;fillColor=none;" vertex="1" parent="1">
          <mxGeometry x="475" y="328" width="50" height="30" as="geometry" />
        </mxCell>
        <mxCell id="sySCFFqM4Ui65GVLa6ty-82" value="(0,n)" style="text;html=1;align=center;verticalAlign=middle;resizable=0;points=[];autosize=1;strokeColor=none;fillColor=none;" vertex="1" parent="1">
          <mxGeometry x="300" y="345" width="50" height="30" as="geometry" />
        </mxCell>
        <mxCell id="sySCFFqM4Ui65GVLa6ty-83" value="N:M" style="text;html=1;align=center;verticalAlign=middle;resizable=0;points=[];autosize=1;strokeColor=none;fillColor=none;" vertex="1" parent="1">
          <mxGeometry x="395" y="308" width="50" height="30" as="geometry" />
        </mxCell>
        <mxCell id="sySCFFqM4Ui65GVLa6ty-87" style="edgeStyle=orthogonalEdgeStyle;rounded=0;orthogonalLoop=1;jettySize=auto;html=1;exitX=0.5;exitY=1;exitDx=0;exitDy=0;entryX=0.008;entryY=0.633;entryDx=0;entryDy=0;entryPerimeter=0;" edge="1" parent="1" source="sySCFFqM4Ui65GVLa6ty-74" target="sySCFFqM4Ui65GVLa6ty-58">
          <mxGeometry relative="1" as="geometry" />
        </mxCell>
        <mxCell id="sySCFFqM4Ui65GVLa6ty-88" value="(0,n)" style="text;html=1;align=center;verticalAlign=middle;resizable=0;points=[];autosize=1;strokeColor=none;fillColor=none;" vertex="1" parent="1">
          <mxGeometry x="180" y="400" width="50" height="30" as="geometry" />
        </mxCell>
        <mxCell id="sySCFFqM4Ui65GVLa6ty-89" value="(1,1)" style="text;html=1;align=center;verticalAlign=middle;resizable=0;points=[];autosize=1;strokeColor=none;fillColor=none;" vertex="1" parent="1">
          <mxGeometry x="220" y="670" width="50" height="30" as="geometry" />
        </mxCell>
        <mxCell id="sySCFFqM4Ui65GVLa6ty-90" value="(1,1)" style="text;html=1;align=center;verticalAlign=middle;resizable=0;points=[];autosize=1;strokeColor=none;fillColor=none;" vertex="1" parent="1">
          <mxGeometry x="635" y="628" width="50" height="30" as="geometry" />
        </mxCell>
        <mxCell id="sySCFFqM4Ui65GVLa6ty-91" value="(0,1)" style="text;html=1;align=center;verticalAlign=middle;resizable=0;points=[];autosize=1;strokeColor=none;fillColor=none;" vertex="1" parent="1">
          <mxGeometry x="300" y="390" width="50" height="30" as="geometry" />
        </mxCell>
        <mxCell id="sySCFFqM4Ui65GVLa6ty-92" value="1:N" style="text;html=1;align=center;verticalAlign=middle;resizable=0;points=[];autosize=1;strokeColor=none;fillColor=none;" vertex="1" parent="1">
          <mxGeometry x="140" y="528" width="40" height="30" as="geometry" />
        </mxCell>
        <mxCell id="sySCFFqM4Ui65GVLa6ty-93" value="1:N" style="text;html=1;align=center;verticalAlign=middle;resizable=0;points=[];autosize=1;strokeColor=none;fillColor=none;" vertex="1" parent="1">
          <mxGeometry x="710" y="528" width="40" height="30" as="geometry" />
        </mxCell>
        <mxCell id="sySCFFqM4Ui65GVLa6ty-94" value="vendido" style="ellipse;whiteSpace=wrap;html=1;" vertex="1" parent="1">
          <mxGeometry x="31.25" y="480" width="100" height="40" as="geometry" />
        </mxCell>
        <mxCell id="sySCFFqM4Ui65GVLa6ty-95" value="SI&lt;br&gt;NO" style="text;html=1;align=center;verticalAlign=middle;resizable=0;points=[];autosize=1;strokeColor=none;fillColor=none;" vertex="1" parent="1">
          <mxGeometry x="-8.75" y="480" width="40" height="40" as="geometry" />
        </mxCell>
        <mxCell id="sySCFFqM4Ui65GVLa6ty-97" value="&lt;u&gt;Id.Semental&lt;/u&gt;" style="ellipse;whiteSpace=wrap;html=1;" vertex="1" parent="1">
          <mxGeometry x="660" y="680" width="90" height="30" as="geometry" />
        </mxCell>
        <mxCell id="sySCFFqM4Ui65GVLa6ty-98" value="&lt;u&gt;Id.Madre&lt;/u&gt;" style="ellipse;whiteSpace=wrap;html=1;" vertex="1" parent="1">
          <mxGeometry x="112" y="710" width="125" height="30" as="geometry" />
        </mxCell>
        <mxCell id="sySCFFqM4Ui65GVLa6ty-99" style="edgeStyle=orthogonalEdgeStyle;rounded=0;orthogonalLoop=1;jettySize=auto;html=1;exitX=1;exitY=0.5;exitDx=0;exitDy=0;entryX=0.367;entryY=1;entryDx=0;entryDy=0;entryPerimeter=0;" edge="1" parent="1" source="sySCFFqM4Ui65GVLa6ty-98" target="sySCFFqM4Ui65GVLa6ty-58">
          <mxGeometry relative="1" as="geometry" />
        </mxCell>
        <mxCell id="sySCFFqM4Ui65GVLa6ty-102" style="edgeStyle=orthogonalEdgeStyle;rounded=0;orthogonalLoop=1;jettySize=auto;html=1;exitX=1;exitY=0.25;exitDx=0;exitDy=0;entryX=0;entryY=0.7;entryDx=0;entryDy=0;entryPerimeter=0;" edge="1" parent="1" source="sySCFFqM4Ui65GVLa6ty-71" target="sySCFFqM4Ui65GVLa6ty-78">
          <mxGeometry relative="1" as="geometry" />
        </mxCell>
      </root>
    </mxGraphModel>
  </diagram>
</mxfile>
